<svg width="2248" height="323" viewBox="0 0 2248 323" fill="none" xmlns="http://www.w3.org/2000/svg">
<g clip-path="url(#clip0_3071_824)">
<path d="M344.602 162.862C320.842 168.786 364.17 176.289 344.602 162.862C323.325 149.848 337.884 100.306 298.852 110.038C259.821 119.769 232.706 151.938 220.04 173.403C208.637 192.726 200.191 209.484 176.43 215.408C152.671 221.332 137.773 212.221 118.204 198.794C96.9276 185.779 71.1781 181.328 32.1464 191.059C-6.88539 200.791 -21.8691 215.411 -34.5343 236.876C-45.9377 256.198 -54.3837 272.957 -78.1443 278.881C-101.904 284.805 -116.802 275.693 -136.37 262.266C-157.647 249.252 -183.595 231.921 -222.626 241.653C-261.658 251.385 -276.444 278.883 -289.109 300.348C-300.512 319.671 -308.958 336.429 -332.719 342.354C-356.479 348.278 -371.376 339.166 -390.945 325.739C-412.222 312.724 -438.169 295.394 -477.201 305.126C-516.233 314.857 -531.018 342.356 -543.684 363.821C-555.087 383.144 -563.533 399.902 -587.294 405.826C-611.053 411.75 -625.951 402.638 -645.519 389.211C-666.796 376.197 -692.744 358.866 -731.776 368.598C-770.807 378.33 -785.593 405.828 -798.258 427.293C-809.662 446.616 -818.108 463.375 -841.868 469.299C-865.628 475.223 -880.526 466.111 -900.094 452.684C-921.371 439.669 -947.319 422.339 -986.35 432.071C-996.532 434.609 -1001.61 443.195 -999.027 453.551C-996.448 463.894 -987.943 469.106 -977.75 466.565C-953.99 460.641 -939.093 469.753 -919.524 483.18C-898.247 496.194 -872.3 513.525 -833.268 503.793C-794.236 494.061 -779.451 466.563 -766.785 445.098C-755.382 425.775 -746.936 409.017 -723.175 403.092C-699.416 397.168 -684.518 406.28 -664.949 419.707C-643.673 432.722 -617.725 450.052 -578.693 440.321C-539.661 430.589 -524.876 403.09 -512.211 381.625C-500.807 362.302 -492.361 345.544 -468.601 339.62C-444.841 333.696 -429.943 342.808 -410.375 356.235C-389.098 369.249 -363.15 386.58 -324.119 376.848C-285.087 367.116 -270.301 339.618 -257.636 318.153C-246.233 298.83 -237.787 282.071 -214.026 276.147C-190.266 270.223 -175.369 279.335 -155.8 292.762C-134.524 305.777 -108.576 323.107 -69.5439 313.375C-30.5122 303.644 -15.7267 276.145 -3.0615 254.68C8.34184 235.357 16.7879 218.599 40.5486 212.675C64.3083 206.751 79.206 215.862 98.7746 229.29C120.051 242.304 145.999 259.635 185.031 249.903C224.062 240.171 238.848 212.672 251.513 191.208C262.917 171.885 271.363 155.126 295.123 149.202C318.883 143.278 343.163 173.838 334.568 139.367C354.2 151.485 305.57 172.594 344.602 162.862C354.783 160.324 347.184 173.217 344.602 162.862C353.09 160.746 342.02 152.506 344.602 162.862Z" fill="url(#paint0_linear_3071_824)"/>
<path fill-rule="evenodd" clip-rule="evenodd" d="M120.316 195.625L120.398 195.681C130.221 202.422 138.449 207.768 147.047 210.793C155.473 213.757 164.367 214.52 175.516 211.741C196.159 206.594 204.192 192.897 214.745 174.903C215.399 173.789 216.062 172.658 216.739 171.511C229.631 149.661 257.45 116.465 297.938 106.37C308.396 103.762 316.161 104.935 321.857 109.381C327.298 113.629 330.07 120.316 332.049 126.809C332.829 129.371 333.525 132.049 334.198 134.668L336.608 136.155C339.565 137.981 341.644 140.233 342.635 142.955C343.628 145.683 343.341 148.368 342.558 150.694C342.182 151.813 341.667 152.91 341.07 153.968C341.396 154.481 341.735 154.972 342.089 155.44C343.155 154.379 344.546 153.922 345.876 153.973C347.212 154.024 348.331 154.564 349.129 155.158C350.434 156.129 351.783 157.987 351.687 160.297C351.797 160.393 351.905 160.494 352.009 160.601C353.807 162.428 353.81 164.7 353.262 166.399C353.454 166.894 353.594 167.432 353.644 168.01C353.765 169.412 353.327 170.75 352.424 171.8C351.609 172.749 350.589 173.266 349.78 173.558C348.945 173.859 348.079 174.014 347.283 174.09C345.693 174.243 343.95 174.122 342.348 173.845C340.748 173.568 339.072 173.097 337.643 172.416C336.928 172.075 336.167 171.632 335.493 171.051C334.941 170.577 334.301 169.883 333.883 168.941C332.708 169.088 331.638 169.161 330.697 169.126C329.77 169.092 328.414 168.942 327.22 168.17C326.549 167.736 325.92 167.097 325.518 166.225C325.124 165.369 325.059 164.526 325.123 163.839C325.24 162.602 325.804 161.569 326.184 160.951C326.543 160.365 327.005 159.74 327.507 159.112C326.917 158.949 326.333 158.769 325.764 158.584C324.205 158.077 322.48 157.433 320.731 156.781C320.141 156.561 319.547 156.339 318.957 156.122C316.555 155.238 314.061 154.363 311.482 153.661C306.303 152.251 301.067 151.616 296.038 152.87C275.394 158.017 267.361 171.714 256.808 189.708C256.154 190.823 255.491 191.953 254.815 193.1C254.293 193.984 253.766 194.882 253.232 195.791C240.893 216.811 225.037 243.824 185.945 253.571C146.859 263.316 120.194 246.922 99.4178 234.149C98.5169 233.595 97.6271 233.048 96.7477 232.51L96.6628 232.458L96.5807 232.402C86.7578 225.662 78.5293 220.315 69.9317 217.29C61.5053 214.326 52.6119 213.563 41.4628 216.343C20.8198 221.489 12.7867 235.186 2.23341 253.18C1.5798 254.295 0.916435 255.426 0.239963 256.572C-0.282038 257.457 -0.809022 258.355 -1.34257 259.263C-13.6819 280.284 -29.5383 307.297 -68.6296 317.043C-107.716 326.789 -134.381 310.395 -155.157 297.622C-156.058 297.068 -156.948 296.521 -157.827 295.983L-157.912 295.931L-157.994 295.874C-167.817 289.134 -176.045 283.788 -184.643 280.763C-193.07 277.798 -201.963 277.035 -213.112 279.815C-233.755 284.962 -241.788 298.659 -252.341 316.653C-252.995 317.767 -253.658 318.898 -254.335 320.045C-254.857 320.929 -255.383 321.827 -255.917 322.736C-268.256 343.756 -284.113 370.769 -323.204 380.516C-362.291 390.261 -388.956 373.867 -409.732 361.094C-410.632 360.54 -411.522 359.993 -412.402 359.455L-412.487 359.403L-412.569 359.347C-422.392 352.607 -430.62 347.26 -439.218 344.236C-447.644 341.271 -456.537 340.508 -467.686 343.288C-488.329 348.435 -496.362 362.131 -506.916 380.125C-507.569 381.24 -508.233 382.371 -508.909 383.517C-509.431 384.402 -509.958 385.3 -510.492 386.208C-522.831 407.229 -538.687 434.242 -577.779 443.988C-616.865 453.734 -643.53 437.34 -664.306 424.567C-665.207 424.013 -666.097 423.466 -666.976 422.928L-667.061 422.876L-667.143 422.82C-676.966 416.079 -685.195 410.733 -693.792 407.708C-702.219 404.744 -711.112 403.98 -722.261 406.76C-742.904 411.907 -750.937 425.604 -761.491 443.598C-762.144 444.713 -762.808 445.844 -763.484 446.99C-764.006 447.874 -764.533 448.772 -765.066 449.681C-777.406 470.702 -793.262 497.714 -832.353 507.461C-871.44 517.206 -898.105 500.812 -918.881 488.039C-919.782 487.485 -920.671 486.938 -921.551 486.4L-921.636 486.348L-921.718 486.292C-931.541 479.552 -939.769 474.206 -948.367 471.181C-956.793 468.216 -965.686 467.453 -976.835 470.233C-982.809 471.722 -988.566 470.989 -993.271 468.11C-997.964 465.238 -1001.25 460.45 -1002.74 454.477C-1004.23 448.496 -1003.57 442.724 -1000.78 437.986C-997.971 433.237 -993.231 429.89 -987.265 428.403C-948.178 418.657 -921.513 435.051 -900.738 447.824C-899.837 448.378 -898.947 448.925 -898.067 449.463L-897.983 449.515L-897.9 449.572C-888.077 456.312 -879.849 461.658 -871.251 464.683C-862.825 467.648 -853.932 468.411 -842.783 465.631C-822.14 460.484 -814.106 446.787 -803.553 428.793C-802.9 427.679 -802.236 426.548 -801.56 425.401C-801.038 424.517 -800.511 423.619 -799.977 422.71C-787.638 401.69 -771.782 374.677 -732.69 364.93C-693.604 355.185 -666.939 371.579 -646.163 384.352C-645.262 384.906 -644.372 385.453 -643.493 385.991L-643.408 386.043L-643.326 386.099C-633.503 392.839 -625.274 398.186 -616.677 401.21C-608.25 404.175 -599.357 404.938 -588.208 402.158C-567.565 397.012 -559.532 383.315 -548.979 365.321C-548.325 364.206 -547.662 363.075 -546.985 361.929C-546.463 361.044 -545.936 360.147 -545.403 359.238C-533.064 338.217 -517.207 311.204 -478.116 301.458C-439.029 291.712 -412.364 308.106 -391.588 320.879C-390.688 321.433 -389.798 321.98 -388.918 322.518L-388.833 322.57L-388.751 322.626C-378.928 329.367 -370.7 334.713 -362.102 337.738C-353.676 340.703 -344.783 341.466 -333.634 338.686C-312.99 333.539 -304.957 319.842 -294.404 301.848C-293.75 300.733 -293.087 299.603 -292.41 298.456C-291.888 297.572 -291.362 296.674 -290.828 295.765C-278.489 274.744 -262.632 247.732 -223.541 237.985C-184.454 228.24 -157.79 244.634 -137.014 257.407C-136.113 257.961 -135.223 258.508 -134.344 259.046L-134.259 259.098L-134.177 259.154C-124.354 265.894 -116.125 271.24 -107.527 274.265C-99.1012 277.23 -90.2081 277.993 -79.0589 275.213C-58.4159 270.066 -50.3827 256.37 -39.8295 238.376C-39.1758 237.261 -38.5124 236.13 -37.836 234.984C-31.3517 223.994 -24.1269 214.51 -13.3622 206.544C-2.62366 198.597 11.3958 192.337 31.2317 187.391C71.0254 177.47 97.8869 181.906 120.231 195.573L120.316 195.625ZM-798.258 427.293C-798.977 428.51 -799.683 429.717 -800.383 430.912C-810.786 448.684 -819.604 463.748 -841.868 469.299C-865.628 475.223 -880.526 466.111 -900.094 452.684C-900.936 452.169 -901.785 451.647 -902.642 451.121C-923.445 438.34 -948.863 422.724 -986.35 432.071C-996.532 434.609 -1001.61 443.195 -999.027 453.551C-996.448 463.894 -987.943 469.106 -977.75 466.565C-953.99 460.641 -939.093 469.753 -919.524 483.18C-918.682 483.695 -917.833 484.217 -916.976 484.743C-896.173 497.524 -870.755 513.14 -833.268 503.793C-795.776 494.445 -780.655 468.705 -768.296 447.665C-767.788 446.801 -767.285 445.945 -766.785 445.098C-766.067 443.881 -765.361 442.674 -764.661 441.479C-754.257 423.707 -745.439 408.643 -723.175 403.092C-699.416 397.168 -684.518 406.28 -664.949 419.707C-664.108 420.222 -663.258 420.744 -662.401 421.271C-641.599 434.051 -616.181 449.667 -578.693 440.321C-541.201 430.973 -526.08 405.232 -513.721 384.192C-513.213 383.328 -512.71 382.472 -512.211 381.625C-511.492 380.408 -510.786 379.201 -510.086 378.006C-499.683 360.234 -490.864 345.171 -468.601 339.62C-444.841 333.696 -429.943 342.808 -410.375 356.235C-409.533 356.75 -408.684 357.272 -407.827 357.798C-387.024 370.578 -361.606 386.195 -324.119 376.848C-286.627 367.5 -271.506 341.759 -259.146 320.72C-258.639 319.856 -258.136 319 -257.636 318.153C-256.918 316.936 -256.211 315.728 -255.512 314.534C-245.108 296.761 -236.29 281.698 -214.026 276.147C-190.266 270.223 -175.369 279.335 -155.8 292.762C-154.958 293.277 -154.109 293.799 -153.252 294.325C-132.45 307.106 -107.031 322.722 -69.5439 313.375C-32.0519 304.028 -16.931 278.287 -4.57157 257.247C-4.06404 256.383 -3.5611 255.527 -3.0615 254.68C-2.34306 253.463 -1.63644 252.256 -0.936995 251.061C9.46688 233.289 18.2849 218.226 40.5486 212.675C64.3083 206.751 79.206 215.862 98.7746 229.29C99.6164 229.805 100.466 230.326 101.322 230.853C122.125 243.633 147.543 259.249 185.031 249.903C222.523 240.555 237.644 214.814 250.003 193.775C250.51 192.911 251.014 192.055 251.513 191.208C252.232 189.991 252.938 188.784 253.637 187.589C264.041 169.817 272.859 154.753 295.123 149.202C304.805 146.788 314.573 150.432 322.168 153.266C325.284 154.428 328.033 155.454 330.262 155.869C331.453 156.091 332.495 156.139 333.365 155.939C334.733 155.625 335.673 154.699 336.091 152.878C336.263 153.23 336.441 153.577 336.623 153.92C335.84 155.066 334.965 156.175 334.093 157.222C333.507 157.925 332.922 158.6 332.368 159.24C332.191 159.445 332.016 159.647 331.846 159.845C328.514 163.712 326.756 166.091 333.765 165.144C335.304 164.936 337.266 164.568 339.726 164.02C340.099 163.937 340.483 163.85 340.879 163.758C342.02 163.495 343.259 163.197 344.602 162.862C343.25 162.035 342.042 161.061 340.957 159.964C340.929 159.935 340.901 159.907 340.873 159.878C340.714 159.716 340.558 159.55 340.404 159.383C339.833 158.76 339.298 158.102 338.794 157.413C338.667 157.239 338.542 157.063 338.419 156.886C337.769 155.948 337.173 154.956 336.623 153.92C337.549 152.564 338.346 151.156 338.854 149.736C340.046 146.403 339.65 143.005 335.611 140.066C335.287 139.83 334.94 139.597 334.568 139.367C336.246 146.099 336.671 150.35 336.091 152.878C335.595 151.865 335.137 150.816 334.709 149.737C333.504 146.694 332.542 143.419 331.653 140.094C331.301 138.775 330.959 137.447 330.619 136.123C330.243 134.657 329.867 133.196 329.478 131.754C325.557 117.218 320.282 104.695 298.852 110.038C259.821 119.769 232.706 151.938 220.04 173.403C219.322 174.62 218.615 175.827 217.916 177.022C207.512 194.794 198.694 209.857 176.43 215.408C152.671 221.332 137.773 212.221 118.204 198.794C96.9276 185.779 71.1781 181.328 32.1464 191.059C-6.88539 200.791 -21.8691 215.411 -34.5343 236.876C-35.2527 238.093 -35.9594 239.3 -36.6589 240.495C-47.0626 258.267 -55.8805 273.33 -78.1443 278.881C-101.904 284.805 -116.802 275.693 -136.37 262.266C-137.212 261.751 -138.061 261.229 -138.918 260.703C-159.721 247.923 -185.139 232.306 -222.626 241.653C-260.118 251.001 -275.239 276.741 -287.599 297.781C-288.106 298.645 -288.609 299.501 -289.109 300.348C-289.827 301.565 -290.534 302.772 -291.233 303.967C-301.637 321.739 -310.455 336.803 -332.719 342.354C-356.479 348.278 -371.376 339.166 -390.945 325.739C-391.787 325.224 -392.636 324.702 -393.493 324.175C-414.296 311.395 -439.714 295.779 -477.201 305.126C-514.693 314.473 -529.814 340.214 -542.174 361.254C-542.681 362.118 -543.184 362.974 -543.684 363.821C-544.402 365.038 -545.109 366.245 -545.808 367.44C-556.212 385.212 -565.03 400.275 -587.294 405.826C-611.053 411.75 -625.951 402.638 -645.519 389.211C-646.361 388.696 -647.211 388.175 -648.068 387.648C-668.87 374.868 -694.288 359.251 -731.776 368.598C-769.268 377.946 -784.389 403.687 -796.748 424.726C-797.256 425.59 -797.759 426.446 -798.258 427.293Z" fill="url(#paint1_linear_3071_824)"/>
</g>
<path fill-rule="evenodd" clip-rule="evenodd" d="M120.937 144.195L95.0308 148.232C78.0569 150.878 64.9175 158.269 54.0387 171.106C43.0792 184.038 37.8008 198.374 37.8008 215.717C37.8008 235.393 44.2439 250.855 57.7259 264.337C71.2079 277.819 86.6703 284.262 106.346 284.262H358.352C371.236 284.262 381.692 280.041 391.6 270.133C401.508 260.225 405.729 249.769 405.729 236.885C405.729 221.535 400.976 210.974 392.01 202.277C382.798 193.342 372.285 189.094 357.89 189.494L319.039 190.573V139.611C319.039 110.78 309.674 87.2742 290.554 67.0368C271.813 47.2009 249.995 37.8008 222.773 37.8008C198.928 37.8008 178.765 45.0947 160.748 60.0683C142.684 75.0807 131.276 94.0544 126.232 118.516L120.937 144.195ZM356.061 123.658C352.914 92.1082 340.238 64.5814 318.031 41.0769C292.159 13.6923 260.406 0 222.773 0C190.18 0 161.452 10.3322 136.587 30.9967C111.722 51.6611 95.9301 78.2897 89.21 110.882C63.3374 114.915 42.0009 126.843 25.2006 146.667C8.40019 166.492 0 189.508 0 215.717C0 245.285 10.3322 270.402 30.9967 291.066C51.6612 311.731 76.7777 322.063 106.346 322.063H358.352C381.537 322.063 401.529 313.663 418.329 296.862C435.13 280.062 443.53 260.07 443.53 236.885C443.53 212.021 435.13 191.44 418.329 175.144C402.86 160.138 384.256 152.326 362.519 151.707C360.649 151.654 358.756 151.654 356.84 151.707V139.611C356.84 134.184 356.58 128.866 356.061 123.658Z" fill="white"/>
<path fill-rule="evenodd" clip-rule="evenodd" d="M120.937 144.195L95.0308 148.232C78.0569 150.878 64.9175 158.269 54.0387 171.106C43.0792 184.038 37.8008 198.374 37.8008 215.717C37.8008 235.393 44.2439 250.855 57.7259 264.337C71.2079 277.819 86.6703 284.262 106.346 284.262H358.352C371.236 284.262 381.692 280.041 391.6 270.133C401.508 260.225 405.729 249.769 405.729 236.885C405.729 221.535 400.976 210.974 392.01 202.277C382.798 193.342 372.285 189.094 357.89 189.494L319.039 190.573V139.611C319.039 110.78 309.674 87.2742 290.554 67.0368C271.813 47.2009 249.995 37.8008 222.773 37.8008C198.928 37.8008 178.765 45.0947 160.748 60.0683C142.684 75.0807 131.276 94.0544 126.232 118.516L120.937 144.195ZM356.061 123.658C352.914 92.1082 340.238 64.5814 318.031 41.0769C292.159 13.6923 260.406 0 222.773 0C190.18 0 161.452 10.3322 136.587 30.9967C111.722 51.6611 95.9301 78.2897 89.21 110.882C63.3374 114.915 42.0009 126.843 25.2006 146.667C8.40019 166.492 0 189.508 0 215.717C0 245.285 10.3322 270.402 30.9967 291.066C51.6612 311.731 76.7777 322.063 106.346 322.063H358.352C381.537 322.063 401.529 313.663 418.329 296.862C435.13 280.062 443.53 260.07 443.53 236.885C443.53 212.021 435.13 191.44 418.329 175.144C402.86 160.138 384.256 152.326 362.519 151.707C360.649 151.654 358.756 151.654 356.84 151.707V139.611C356.84 134.184 356.58 128.866 356.061 123.658Z" fill="url(#paint2_linear_3071_824)"/>
<path d="M527.566 318.6V94.1947H569.019V120.375C577.746 102.61 592.394 90.7663 620.757 90.7663C665.326 90.7663 700.857 129.102 700.857 175.853C700.857 222.604 665.326 260.317 620.757 260.317C593.018 260.317 578.369 249.097 569.642 232.266V318.6H527.566ZM568.395 175.853C568.395 201.099 586.161 222.293 613.9 222.293C640.704 222.293 658.781 200.164 658.781 175.542C658.781 150.296 640.704 128.791 613.9 128.791C586.161 128.791 568.395 150.608 568.395 175.853Z" fill="white"/>
<path d="M527.566 318.6V94.1947H569.019V120.375C577.746 102.61 592.394 90.7663 620.757 90.7663C665.326 90.7663 700.857 129.102 700.857 175.853C700.857 222.604 665.326 260.317 620.757 260.317C593.018 260.317 578.369 249.097 569.642 232.266V318.6H527.566ZM568.395 175.853C568.395 201.099 586.161 222.293 613.9 222.293C640.704 222.293 658.781 200.164 658.781 175.542C658.781 150.296 640.704 128.791 613.9 128.791C586.161 128.791 568.395 150.608 568.395 175.853Z" fill="white"/>
<path d="M719.623 256.265V28.7432H761.699V256.265H719.623Z" fill="white"/>
<path d="M719.623 256.265V28.7432H761.699V256.265H719.623Z" fill="white"/>
<path d="M860.451 260.317C815.882 260.317 780.351 222.604 780.351 175.853C780.351 129.102 815.882 90.7663 860.451 90.7663C888.502 90.7663 903.15 102.298 911.877 119.752V94.1947H953.641V256.265H912.812V229.773C904.085 248.162 889.437 260.317 860.451 260.317ZM822.427 175.542C822.427 200.164 840.504 222.293 867.308 222.293C895.047 222.293 912.812 201.099 912.812 175.853C912.812 150.608 895.047 128.791 867.308 128.791C840.504 128.791 822.427 150.296 822.427 175.542Z" fill="white"/>
<path d="M860.451 260.317C815.882 260.317 780.351 222.604 780.351 175.853C780.351 129.102 815.882 90.7663 860.451 90.7663C888.502 90.7663 903.15 102.298 911.877 119.752V94.1947H953.641V256.265H912.812V229.773C904.085 248.162 889.437 260.317 860.451 260.317ZM822.427 175.542C822.427 200.164 840.504 222.293 867.308 222.293C895.047 222.293 912.812 201.099 912.812 175.853C912.812 150.608 895.047 128.791 867.308 128.791C840.504 128.791 822.427 150.296 822.427 175.542Z" fill="white"/>
<path d="M995.16 321.405C986.745 321.405 975.524 320.782 967.109 318.288L973.343 278.082C979.576 279.641 985.498 280.264 992.355 280.264C1008.56 280.264 1018.85 269.979 1023.52 255.642L1025.7 248.785L961.499 94.1947H1012.3L1043.78 186.762C1046.59 194.554 1049.08 204.216 1050.64 212.631C1052.2 204.216 1054.69 194.554 1057.49 186.762L1088.97 94.1947H1138.84L1067.16 266.55C1053.44 299.276 1033.18 321.405 995.16 321.405Z" fill="white"/>
<path d="M995.16 321.405C986.745 321.405 975.524 320.782 967.109 318.288L973.343 278.082C979.576 279.641 985.498 280.264 992.355 280.264C1008.56 280.264 1018.85 269.979 1023.52 255.642L1025.7 248.785L961.499 94.1947H1012.3L1043.78 186.762C1046.59 194.554 1049.08 204.216 1050.64 212.631C1052.2 204.216 1054.69 194.554 1057.49 186.762L1088.97 94.1947H1138.84L1067.16 266.55C1053.44 299.276 1033.18 321.405 995.16 321.405Z" fill="white"/>
<path d="M1248.92 256.265V28.7432H1291V116.635C1299.72 99.1815 1315.62 90.4546 1339.93 90.4546C1374.84 90.4546 1401.64 116.324 1401.64 157.153V256.265H1359.57V167.438C1359.57 139.387 1345.54 127.232 1324.66 127.232C1306.89 127.232 1291 139.387 1291 167.438V256.265H1248.92Z" fill="white"/>
<path d="M1248.92 256.265V28.7432H1291V116.635C1299.72 99.1815 1315.62 90.4546 1339.93 90.4546C1374.84 90.4546 1401.64 116.324 1401.64 157.153V256.265H1359.57V167.438C1359.57 139.387 1345.54 127.232 1324.66 127.232C1306.89 127.232 1291 139.387 1291 167.438V256.265H1248.92Z" fill="white"/>
<path d="M1505.25 260.317C1455.07 260.317 1418.92 222.293 1418.92 175.542C1418.92 128.791 1455.07 90.4546 1505.25 90.4546C1555.43 90.4546 1591.58 128.791 1591.58 175.542C1591.58 222.293 1555.43 260.317 1505.25 260.317ZM1460.99 175.542C1460.99 200.787 1478.45 221.981 1505.25 221.981C1532.05 221.981 1549.51 200.787 1549.51 175.542C1549.51 150.296 1532.05 128.791 1505.25 128.791C1478.45 128.791 1460.99 150.296 1460.99 175.542Z" fill="white"/>
<path d="M1505.25 260.317C1455.07 260.317 1418.92 222.293 1418.92 175.542C1418.92 128.791 1455.07 90.4546 1505.25 90.4546C1555.43 90.4546 1591.58 128.791 1591.58 175.542C1591.58 222.293 1555.43 260.317 1505.25 260.317ZM1460.99 175.542C1460.99 200.787 1478.45 221.981 1505.25 221.981C1532.05 221.981 1549.51 200.787 1549.51 175.542C1549.51 150.296 1532.05 128.791 1505.25 128.791C1478.45 128.791 1460.99 150.296 1460.99 175.542Z" fill="white"/>
<path d="M1662.34 260.317C1634.91 260.317 1612.78 250.967 1595.02 231.955L1623.38 206.086C1635.22 219.488 1647.69 226.033 1661.4 226.033C1675.74 226.033 1683.84 218.864 1683.84 209.202C1683.84 200.787 1679.79 196.112 1654.23 190.19C1610.91 179.905 1604.37 160.27 1604.37 139.699C1604.37 111.337 1626.81 90.1429 1664.83 90.1429C1691.01 90.1429 1708.46 96.6881 1724.98 118.194L1694.44 141.569C1686.65 129.102 1676.67 124.115 1665.77 124.115C1654.23 124.115 1645.51 128.479 1645.51 138.452C1645.51 144.063 1648 149.049 1667.32 154.036C1714.39 166.191 1725.3 183.645 1725.3 207.956C1725.3 237.876 1698.18 260.317 1662.34 260.317Z" fill="white"/>
<path d="M1662.34 260.317C1634.91 260.317 1612.78 250.967 1595.02 231.955L1623.38 206.086C1635.22 219.488 1647.69 226.033 1661.4 226.033C1675.74 226.033 1683.84 218.864 1683.84 209.202C1683.84 200.787 1679.79 196.112 1654.23 190.19C1610.91 179.905 1604.37 160.27 1604.37 139.699C1604.37 111.337 1626.81 90.1429 1664.83 90.1429C1691.01 90.1429 1708.46 96.6881 1724.98 118.194L1694.44 141.569C1686.65 129.102 1676.67 124.115 1665.77 124.115C1654.23 124.115 1645.51 128.479 1645.51 138.452C1645.51 144.063 1648 149.049 1667.32 154.036C1714.39 166.191 1725.3 183.645 1725.3 207.956C1725.3 237.876 1698.18 260.317 1662.34 260.317Z" fill="white"/>
<path d="M1800.36 256.265C1768.25 256.265 1750.8 241.305 1750.8 206.086V130.037H1728.05V94.1947H1750.8V61.4689L1792.87 57.1055V94.1947H1827.16V130.037H1792.87V203.904C1792.87 214.189 1797.86 218.864 1805.97 218.864H1823.42V256.265H1800.36Z" fill="white"/>
<path d="M1800.36 256.265C1768.25 256.265 1750.8 241.305 1750.8 206.086V130.037H1728.05V94.1947H1750.8V61.4689L1792.87 57.1055V94.1947H1827.16V130.037H1792.87V203.904C1792.87 214.189 1797.86 218.864 1805.97 218.864H1823.42V256.265H1800.36Z" fill="white"/>
<path d="M1841.22 256.265V94.1947H1883.3V256.265H1841.22ZM1836.86 55.8588C1836.86 42.4568 1847.77 31.2365 1862.11 31.2365C1876.75 31.2365 1887.35 42.4568 1887.35 55.8588C1887.35 69.8841 1876.75 80.7927 1862.11 80.7927C1847.77 80.7927 1836.86 69.5724 1836.86 55.8588Z" fill="white"/>
<path d="M1841.22 256.265V94.1947H1883.3V256.265H1841.22ZM1836.86 55.8588C1836.86 42.4568 1847.77 31.2365 1862.11 31.2365C1876.75 31.2365 1887.35 42.4568 1887.35 55.8588C1887.35 69.8841 1876.75 80.7927 1862.11 80.7927C1847.77 80.7927 1836.86 69.5724 1836.86 55.8588Z" fill="white"/>
<path d="M1908.18 256.265V94.1947H1949.64V117.882C1958.05 99.8048 1974.26 90.4546 1999.19 90.4546C2034.1 90.4546 2060.9 116.324 2060.9 157.153V256.265H2018.83V167.438C2018.83 139.387 2004.8 127.232 1983.92 127.232C1966.16 127.232 1950.26 139.387 1950.26 167.438V256.265H1908.18Z" fill="white"/>
<path d="M1908.18 256.265V94.1947H1949.64V117.882C1958.05 99.8048 1974.26 90.4546 1999.19 90.4546C2034.1 90.4546 2060.9 116.324 2060.9 157.153V256.265H2018.83V167.438C2018.83 139.387 2004.8 127.232 1983.92 127.232C1966.16 127.232 1950.26 139.387 1950.26 167.438V256.265H1908.18Z" fill="white"/>
<path d="M2163.27 322.652C2130.54 322.652 2104.98 314.86 2085.66 292.108L2111.84 261.252C2127.11 278.706 2143.32 283.692 2163.58 283.692C2186.02 283.692 2205.66 265.304 2205.66 239.435V232.266C2196.93 247.227 2182.9 257.2 2156.72 257.2C2112.15 257.2 2078.18 220.423 2078.18 173.672C2078.18 126.92 2112.15 90.1429 2156.72 90.1429C2183.53 90.1429 2197.86 100.428 2206.28 116.324V94.1947H2247.73V241.928C2247.73 291.796 2212.82 322.652 2163.27 322.652ZM2120.26 173.672C2120.26 198.294 2136.15 218.864 2163.58 218.864C2191.32 218.864 2207.53 198.917 2207.53 173.672C2207.53 148.426 2191.32 128.479 2163.58 128.479C2136.15 128.479 2120.26 148.426 2120.26 173.672Z" fill="white"/>
<path d="M2163.27 322.652C2130.54 322.652 2104.98 314.86 2085.66 292.108L2111.84 261.252C2127.11 278.706 2143.32 283.692 2163.58 283.692C2186.02 283.692 2205.66 265.304 2205.66 239.435V232.266C2196.93 247.227 2182.9 257.2 2156.72 257.2C2112.15 257.2 2078.18 220.423 2078.18 173.672C2078.18 126.92 2112.15 90.1429 2156.72 90.1429C2183.53 90.1429 2197.86 100.428 2206.28 116.324V94.1947H2247.73V241.928C2247.73 291.796 2212.82 322.652 2163.27 322.652ZM2120.26 173.672C2120.26 198.294 2136.15 218.864 2163.58 218.864C2191.32 218.864 2207.53 198.917 2207.53 173.672C2207.53 148.426 2191.32 128.479 2163.58 128.479C2136.15 128.479 2120.26 148.426 2120.26 173.672Z" fill="white"/>
<path d="M1181.21 199.869C1175.68 199.869 1170.66 198.56 1166.15 195.942C1161.65 193.179 1158.01 189.543 1155.25 185.034C1152.63 180.379 1151.32 175.289 1151.32 169.762C1151.32 164.089 1152.63 158.999 1155.25 154.49C1158.01 149.835 1161.65 146.199 1166.15 143.581C1170.66 140.818 1175.68 139.436 1181.21 139.436C1186.88 139.436 1191.97 140.818 1196.48 143.581C1201.13 146.199 1204.77 149.835 1207.39 154.49C1210.15 158.999 1211.53 164.089 1211.53 169.762C1211.53 175.289 1210.15 180.379 1207.39 185.034C1204.77 189.543 1201.13 193.179 1196.48 195.942C1191.97 198.56 1186.88 199.869 1181.21 199.869Z" fill="white"/>
<defs>
<linearGradient id="paint0_linear_3071_824" x1="28.8626" y1="203.521" x2="333.201" y2="119.194" gradientUnits="userSpaceOnUse">
<stop stop-color="#E1C06B"/>
<stop offset="1" stop-color="#EAC971"/>
</linearGradient>
<linearGradient id="paint1_linear_3071_824" x1="28.8626" y1="203.521" x2="333.201" y2="119.194" gradientUnits="userSpaceOnUse">
<stop stop-color="#E1C06B"/>
<stop offset="1" stop-color="#EAC971"/>
</linearGradient>
<linearGradient id="paint2_linear_3071_824" x1="221.765" y1="0" x2="221.765" y2="322.063" gradientUnits="userSpaceOnUse">
<stop stop-color="#FAD77B"/>
<stop offset="1" stop-color="#D2B361"/>
</linearGradient>
<clipPath id="clip0_3071_824">
<rect width="320.347" height="152.621" fill="white" transform="translate(19.423 161.911) rotate(-14)"/>
</clipPath>
</defs>
</svg>
